<?xml version="1.0" encoding="UTF-8"?>
<svg id="b" data-name="Layer 2" xmlns="http://www.w3.org/2000/svg" width="19.108" height="37.34" viewBox="0 0 19.108 37.34">
  <defs>
    <style>
      .d {
        fill: #f1f2f2;
      }

      .e {
        fill: #d1d3d4;
      }

      .f {
        fill: #808285;
      }

      .g {
        fill: #4c9bd2;
      }

      .h {
        fill: #4dade1;
      }
    </style>
  </defs>
  <g id="c" data-name="Layer 1">
    <g>
      <g>
        <path class="f" d="m11.223,34.949V7.01h-3.914v28.17l1.842,1.842c.691-.691,1.382-1.382,2.072-2.072Z"/>
        <path class="d" d="m9.151,37.198l-1.967-1.967V6.885h4.164v28.116l-2.197,2.197Zm-1.717-2.07l1.717,1.717,1.947-1.947V7.135h-3.664v27.993Z"/>
      </g>
      <g>
        <polygon class="e" points="9.036 6.626 7.28 6.626 7.28 35.282 9.036 37.038 9.036 6.626"/>
        <path class="d" d="m9.161,37.34l-2.005-2.006V6.501h2.005v30.839Zm-1.755-2.109l1.505,1.506V6.751h-1.505v28.479Z"/>
      </g>
      <g>
        <circle class="g" cx="9.554" cy="9.554" r="9.429"/>
        <path class="d" d="m9.554,19.108C4.286,19.108,0,14.822,0,9.554S4.286,0,9.554,0s9.554,4.286,9.554,9.554-4.286,9.554-9.554,9.554ZM9.554.25C4.424.25.25,4.424.25,9.554s4.174,9.304,9.304,9.304,9.304-4.174,9.304-9.304S14.684.25,9.554.25Z"/>
      </g>
      <path class="h" d="m13.947,1.396c-.954.325-5.25,1.902-7.738,6.56-2.366,4.429-1.495,8.645-1.25,9.682-.712-.4-2.492-1.524-3.661-3.789C.205,11.729.222,9.727.334,8.652c.066-.632.277-2.024,1.126-3.558C3.942.609,9.532-1.047,13.947,1.396Z"/>
    </g>
  </g>
</svg>