<?xml version="1.0" encoding="UTF-8"?>
<svg id="b" data-name="Layer 2" xmlns="http://www.w3.org/2000/svg" width="18.858" height="36.917" viewBox="0 0 18.858 36.917">
  <defs>
    <style>
      .d {
        fill: #d1d3d4;
      }

      .e {
        fill: #808285;
      }

      .f {
        fill: #4c9bd2;
      }

      .g {
        fill: #4dade1;
      }
    </style>
  </defs>
  <g id="c" data-name="Layer 1">
    <path class="e" d="m11.098,34.829V6.889h-3.914v28.17l1.842,1.842c.691-.691,1.382-1.382,2.072-2.072Z"/>
    <polygon class="d" points="8.911 6.505 7.155 6.505 7.155 35.162 8.911 36.917 8.911 6.505"/>
    <circle class="f" cx="9.429" cy="9.433" r="9.429"/>
    <path class="g" d="m13.894,1.146c-.969.33-5.334,1.933-7.861,6.664-2.403,4.499-1.519,8.782-1.27,9.836-.723-.406-2.531-1.548-3.719-3.849C-.067,11.644-.05,9.61.064,8.517c.067-.642.282-2.056,1.144-3.615C3.729.346,9.409-1.335,13.894,1.146Z"/>
  </g>
</svg>