<?xml version="1.0" encoding="UTF-8"?>
<svg id="b" data-name="Layer 2" xmlns="http://www.w3.org/2000/svg" width="68.957" height="68.254" viewBox="0 0 68.957 68.254">
  <defs>
    <style>
      .e {
        fill: #fff;
        stroke-width: 0px;
      }
    </style>
  </defs>
  <g id="c" data-name="b">
    <g id="d" data-name="c">
      <path class="e" d="m38.515,60.104v8.15h-8.154v-8.166c-11.993-2.683-19.225-9.919-21.851-21.887H.12c-.032-1.805-.224-3.557-.044-5.27.164-1.557,1.651-2.595,3.474-2.679,1.66-.077,3.327-.016,4.937-.016,2.52-11.752,9.484-18.954,21.031-21.865,0-1.081-.017-2.237.003-3.392.066-3.665,1.265-4.886,4.912-4.962,1.637-.035,3.275-.006,4.972-.006v8.37c11.469,2.876,18.437,10.076,20.976,21.843,1.518,0,3.127-.068,4.728.015,2.647.138,3.941,1.598,3.843,4.248-.036.988-.183,1.971-.239,2.958-.032.568-.258.764-.84.756-2.206-.031-4.412-.012-6.618-.012h-.89c-2.606,11.945-9.829,19.191-21.852,21.917l.002-.002Zm-22.161-25.967c-.019,9.969,8.086,18.087,18.072,18.101,9.971.014,18.091-8.1,18.094-18.08.003-9.988-8.083-18.086-18.073-18.098-9.976-.012-18.074,8.079-18.093,18.077Z"/>
      <path class="e" d="m34.474,24.105c5.546.016,10.007,4.503,10.001,10.06-.006,5.583-4.526,10.062-10.119,10.028-5.535-.034-9.979-4.543-9.958-10.104.021-5.539,4.523-10,10.076-9.984Z"/>
    </g>
  </g>
</svg>